<?xml version="1.0" encoding="UTF-8" standalone="no"?>
<!-- Created with Inkscape (http://www.inkscape.org/) -->

<svg
   width="35.392639mm"
   height="37.5509mm"
   viewBox="0 0 35.392639 37.5509"
   version="1.1"
   id="svg1200"
   inkscape:version="1.1.2 (0a00cf5339, 2022-02-04, custom)"
   sodipodi:docname="attachdoc.svg"
   xmlns:inkscape="http://www.inkscape.org/namespaces/inkscape"
   xmlns:sodipodi="http://sodipodi.sourceforge.net/DTD/sodipodi-0.dtd"
   xmlns="http://www.w3.org/2000/svg"
   xmlns:svg="http://www.w3.org/2000/svg">
  <sodipodi:namedview
     id="namedview1202"
     pagecolor="#ffffff"
     bordercolor="#666666"
     borderopacity="1.0"
     inkscape:pageshadow="2"
     inkscape:pageopacity="0.0"
     inkscape:pagecheckerboard="0"
     inkscape:document-units="mm"
     showgrid="false"
     fit-margin-top="0"
     fit-margin-left="0"
     fit-margin-right="0"
     fit-margin-bottom="0"
     inkscape:zoom="0.6137977"
     inkscape:cx="-3.2584026"
     inkscape:cy="101.82508"
     inkscape:window-width="1914"
     inkscape:window-height="1017"
     inkscape:window-x="0"
     inkscape:window-y="24"
     inkscape:window-maximized="1"
     inkscape:current-layer="layer1" />
  <defs
     id="defs1197" />
  <g
     inkscape:label="Livello 1"
     inkscape:groupmode="layer"
     id="layer1"
     transform="translate(-75.42529,-121.65386)">
    <path
       style="opacity:0.3;fill:#000000;stroke-width:0.0383103"
       d="m 75.42529,140.42876 v -18.7749 h 10.02776 10.02779 l 4.56843,4.56857 4.56845,4.56854 v 6.19289 6.19289 l 0.27773,0.0812 c 0.43807,0.12832 0.77973,0.26432 1.25487,0.4999 0.87143,0.43207 1.39277,0.79415 2.04229,1.41838 0.835,0.80248 1.33779,1.47212 1.78676,2.37969 0.97594,1.97281 1.10509,4.19113 0.36081,6.19662 -0.8741,2.35527 -2.81217,4.23823 -5.18612,5.0387 -0.28446,0.0958 -0.68096,0.20055 -0.88114,0.2323 -0.86117,0.13732 -1.58838,0.145 -15.33369,0.16272 l -13.51394,0.0185 z m 17.90925,17.50894 5.0179,-0.0238 -0.34401,-0.26512 c -0.77539,-0.59756 -1.56528,-1.41322 -2.00639,-2.07179 -0.30535,-0.45596 -0.6735,-1.16612 -0.88262,-1.70278 -0.99285,-2.54757 -0.5905,-5.32598 1.10072,-7.6009 0.33774,-0.45434 1.04552,-1.19208 1.48256,-1.54535 1.08723,-0.87881 2.34284,-1.44732 3.69695,-1.67391 0.40859,-0.0683 1.25574,-0.13838 1.67608,-0.13864 l 0.27773,-1.1e-4 v -4.1312 c 0,-2.27219 -0.0106,-4.80642 -0.0265,-5.63161 l -0.0265,-1.50037 h -2.17115 c -1.19414,0 -3.15658,-0.0106 -4.36099,-0.0265 l -2.18985,-0.0265 -0.0106,-4.35148 -0.0106,-4.35155 -9.05081,-0.0106 -9.05079,-0.0106 v 17.54617 17.54621 l 5.92852,-0.005 c 3.26067,-0.003 8.18655,-0.0159 10.94637,-0.0288 z m -10.26636,-6.24639 c -1.05543,-0.0212 -1.15994,-0.0283 -1.2794,-0.0984 -0.0714,-0.0421 -0.16457,-0.1225 -0.20637,-0.17885 -0.10822,-0.14526 -0.12991,-0.44429 -0.0452,-0.62286 0.11986,-0.25241 0.16378,-0.26432 1.08628,-0.2949 1.07849,-0.0357 5.16985,-0.0355 7.06826,6.8e-4 l 1.48995,0.0283 0.0889,0.10346 c 0.13441,0.1561 0.18283,0.38044 0.12991,0.60097 -0.0537,0.22384 -0.1569,0.32658 -0.38296,0.38108 -0.42238,0.10186 -4.61925,0.1442 -7.94938,0.0802 z m -1.39695,-5.21078 c -0.0876,-0.10451 -0.17224,-0.23813 -0.18812,-0.29692 -0.0476,-0.17515 0.0238,-0.42114 0.16536,-0.56187 0.11748,-0.11747 0.15082,-0.12859 0.44765,-0.15187 0.17648,-0.0132 2.68105,-0.0265 5.56573,-0.0265 l 5.24488,-2.4e-4 0.12859,0.0979 c 0.15584,0.1188 0.28107,0.35208 0.28086,0.52303 -1.6e-4,0.13599 -0.10187,0.33131 -0.26009,0.49956 l -0.099,0.1053 h -5.5634 -5.56339 z m 0.0159,-4.99277 c -0.28662,-0.28665 -0.28212,-0.60762 0.0132,-0.8899 l 0.17939,-0.17198 h 8.02849 8.02849 l 0.1397,0.14367 c 0.30163,0.31046 0.2948,0.65402 -0.0185,0.99608 l -0.0794,0.0863 h -8.06271 -8.06267 z m 1.74488,-4.85325 c -1.24839,-0.0185 -1.57377,-0.0344 -1.66508,-0.0794 -0.17198,-0.0849 -0.28879,-0.28443 -0.2885,-0.49265 2.7e-4,-0.17913 0.0426,-0.26795 0.2368,-0.49599 l 0.10293,-0.12091 7.52086,0.002 c 4.13647,10e-4 7.77467,0.0159 8.08484,0.0331 0.61892,0.0339 0.70827,0.0643 0.81862,0.27762 0.0437,0.0841 0.0574,0.18336 0.0455,0.32687 -0.0185,0.21855 -0.0939,0.35306 -0.27429,0.48781 l -0.10584,0.0791 -6.46207,0.003 c -3.55415,0.002 -7.16026,-0.008 -8.01362,-0.0212 z m -1.32546,-5.05516 c -0.22913,-0.0132 -0.41119,-0.0426 -0.44662,-0.072 -0.099,-0.082 -0.18176,-0.29651 -0.18176,-0.46995 0,-0.17965 0.14261,-0.46567 0.2577,-0.51699 0.0873,-0.0389 6.12426,-0.072 6.55754,-0.036 0.29951,0.0238 0.3366,0.0373 0.44955,0.15029 0.21723,0.21722 0.21961,0.54176 0.005,0.8202 l -0.1225,0.15955 -3.0662,-0.005 c -1.6864,-0.003 -3.24027,-0.0159 -3.45302,-0.0288 z m 22.12793,26.20867 c 1.60557,-0.35202 2.93602,-1.20155 3.97171,-2.53608 1.27672,-1.64513 1.70997,-4.05776 1.10413,-6.14881 -0.34507,-1.191 -0.93247,-2.16482 -1.82552,-3.02649 -0.52623,-0.50776 -0.95924,-0.82026 -1.55731,-1.12387 -0.93684,-0.47562 -1.62978,-0.64974 -2.91893,-0.73348 -0.52486,-0.0341 -0.70866,-0.031 -1.08326,0.0185 -2.09177,0.27432 -3.82564,1.30778 -4.90556,2.92391 -0.41654,0.62333 -0.7674,1.41232 -0.9743,2.19086 -0.0897,0.3371 -0.0982,0.44333 -0.11483,1.43999 -0.0238,1.36091 0.0106,1.6854 0.24315,2.39853 0.59423,1.81811 1.70722,3.11862 3.4118,3.98653 0.71763,0.36536 1.42923,0.59626 2.0886,0.67768 0.15425,0.0185 0.71167,0.0299 1.23843,0.0238 0.80026,-0.008 1.01759,-0.0238 1.3217,-0.0908 z m -1.70601,-2.384 c -0.1741,-0.0524 -0.34872,-0.24289 -0.3764,-0.41026 -0.0132,-0.0791 -0.0238,-0.84659 -0.0238,-1.70521 l -3.7e-4,-1.56115 -1.10143,-8.2e-4 c -1.39031,-0.001 -2.1466,-0.0466 -2.3386,-0.14076 -0.16431,-0.0807 -0.2948,-0.25929 -0.33131,-0.45384 -0.0315,-0.16775 0.0863,-0.43857 0.23203,-0.53422 0.14367,-0.0942 0.64527,-0.13309 1.72305,-0.13388 0.52874,-3.7e-4 1.14168,-0.0106 1.36208,-0.0265 l 0.40071,-0.0238 0.0484,-1.55578 c 0.0608,-1.95249 0.054,-1.89978 0.26643,-2.06158 0.1987,-0.15134 0.33846,-0.16007 0.58071,-0.0362 0.34941,0.1786 0.38293,0.38278 0.38335,2.33307 l 2.9e-4,1.36959 1.25466,9.3e-4 c 1.40404,0.001 2.09008,0.0402 2.26219,0.12912 0.30458,0.15742 0.24923,0.77239 -0.0884,0.98102 -0.17966,0.11112 -0.75507,0.14922 -2.28555,0.15134 l -1.13644,0.002 -0.0159,1.5803 c -0.0159,1.62801 -0.0267,1.74453 -0.17833,1.91942 -0.13599,0.1569 -0.43148,0.23892 -0.63756,0.17675 z m -0.13282,-25.01765 c 0,-0.0212 -1.48212,-1.52642 -3.29359,-3.34255 l -3.29356,-3.30205 -8.2e-4,1.32498 c -7.7e-4,0.72874 0.0106,2.2329 0.0238,3.34259 l 0.0265,2.01759 h 3.26927 c 2.27317,0 3.26925,-0.0132 3.26925,-0.0405 z"
       id="path50263" />
    <path
       style="fill:#7fe4cc;fill-opacity:1;stroke-width:0.164225"
       d="m 100.80277,157.57712 c -1.77276,-0.57258 -3.39759,-1.95487 -4.19891,-3.57203 -0.44513,-0.89842 -0.47654,-1.09053 -0.47895,-2.93211 -0.003,-1.82253 0.0316,-2.04015 0.4512,-2.89431 0.93559,-1.90436 2.53762,-3.18666 4.62462,-3.7017 2.9314,-0.7234 6.16265,0.7866 7.55251,3.52935 1.67108,3.29772 0.29194,7.48007 -3.00186,9.10336 -0.98848,0.48716 -1.22674,0.53518 -2.80908,0.56619 -0.95094,0.0185 -1.91373,-0.0265 -2.13953,-0.0987 z m 2.52791,-2.41194 c 0.0548,-0.14287 0.0997,-0.9558 0.0997,-1.80649 v -1.5467 h 1.56011 c 1.34118,0 1.60624,-0.046 1.8886,-0.32846 0.36608,-0.36605 0.38909,-0.47104 0.17685,-0.80634 -0.10547,-0.16669 -0.63466,-0.25321 -1.88609,-0.3089 l -1.73947,-0.0773 v -1.60901 c 0,-1.24376 -0.0586,-1.66757 -0.25808,-1.86706 -0.55819,-0.55817 -1.05574,-0.17251 -1.05574,0.81814 0,0.37516 -0.0475,1.13634 -0.10551,1.69154 l -0.10549,1.00944 -1.33147,0.0159 c -1.78231,0.0212 -2.13981,0.13335 -2.20456,0.688 -0.0707,0.60579 0.42392,0.77364 2.27971,0.77364 h 1.46732 v 1.69701 c 0,0.93334 0.0493,1.74625 0.10949,1.80647 0.21529,0.21537 1.0056,0.10768 1.10463,-0.15028 z"
       id="path56692" />
  </g>
</svg>
