<?xml version="1.0" encoding="UTF-8" standalone="no"?>
<!-- Created with Inkscape (http://www.inkscape.org/) -->

<svg
   width="32.604565mm"
   height="29.177732mm"
   viewBox="0 0 32.604565 29.177732"
   version="1.1"
   id="svg10450"
   inkscape:version="1.1.2 (0a00cf5339, 2022-02-04, custom)"
   sodipodi:docname="globalattach.svg"
   xmlns:inkscape="http://www.inkscape.org/namespaces/inkscape"
   xmlns:sodipodi="http://sodipodi.sourceforge.net/DTD/sodipodi-0.dtd"
   xmlns="http://www.w3.org/2000/svg"
   xmlns:svg="http://www.w3.org/2000/svg">
  <sodipodi:namedview
     id="namedview10452"
     pagecolor="#ffffff"
     bordercolor="#666666"
     borderopacity="1.0"
     inkscape:pageshadow="2"
     inkscape:pageopacity="0.0"
     inkscape:pagecheckerboard="0"
     inkscape:document-units="mm"
     showgrid="false"
     fit-margin-top="0"
     fit-margin-left="0"
     fit-margin-right="0"
     fit-margin-bottom="0"
     inkscape:zoom="0.6137977"
     inkscape:cx="-635.3885"
     inkscape:cy="57.836646"
     inkscape:window-width="1914"
     inkscape:window-height="1017"
     inkscape:window-x="0"
     inkscape:window-y="24"
     inkscape:window-maximized="1"
     inkscape:current-layer="layer1" />
  <defs
     id="defs10447" />
  <g
     inkscape:label="Livello 1"
     inkscape:groupmode="layer"
     id="layer1"
     transform="translate(-96.635308,-133.26454)">
    <g
       id="g303127"
       transform="matrix(2.6458333,0,0,2.6458333,-25.426688,110.54865)"
       style="display:inline">
      <g
         id="g303014"
         transform="matrix(1.1470244,0,0,1.1470244,-11.951426,-5.5960449)">
        <path
           d="m 59.805152,13.353318 c -0.321647,-0.321648 -0.695656,-0.571699 -1.114545,-0.741606 -0.40393,-0.163495 -0.830299,-0.247914 -1.268423,-0.247914 -0.437056,0 -0.864494,0.08228 -1.268424,0.244708 -0.41782,0.168839 -0.792897,0.415684 -1.114544,0.735194 l -3.618265,3.610785 c -0.254326,0.252189 -0.450948,0.546053 -0.585591,0.87518 -0.1293,0.317373 -0.195553,0.652912 -0.195553,0.998068 0,0.34302 0.06519,0.67749 0.193416,0.994863 0.132505,0.328058 0.328059,0.621923 0.580247,0.875169 0.252189,0.253258 0.547122,0.44881 0.87518,0.582385 0.317373,0.12931 0.652913,0.194484 0.997,0.194484 0.344087,0 0.679627,-0.06518 0.997,-0.193416 0.329127,-0.133574 0.624049,-0.329127 0.877317,-0.581316 l 2.875601,-2.863836 c 0.184867,-0.183798 0.326991,-0.398586 0.424222,-0.637951 0.09405,-0.230818 0.141055,-0.475526 0.141055,-0.725567 0,-0.515062 -0.200896,-0.995931 -0.565277,-1.357116 -0.363322,-0.36546 -0.846327,-0.567425 -1.360333,-0.569561 -0.515052,-0.0011 -0.999137,0.198758 -1.363528,0.563149 l -1.790966,1.792035 c -0.09083,0.09083 -0.139986,0.210514 -0.139986,0.337687 0,0.127153 0.04915,0.247903 0.139986,0.337676 l 0.0074,0.0075 c 0.185935,0.187004 0.489417,0.187004 0.676421,0.0011 l 1.795241,-1.789898 c 0.375077,-0.371871 0.984177,-0.374009 1.359243,-0.0042 0.180593,0.179524 0.278914,0.419958 0.278914,0.677479 0,0.259668 -0.100448,0.503319 -0.283178,0.684981 l -2.874523,2.863836 c -0.0053,0.0053 -0.0096,0.0096 -0.01282,0.01603 -0.317373,0.308813 -0.736263,0.477651 -1.180799,0.475524 -0.447741,-0.0021 -0.8677,-0.176318 -1.181866,-0.491553 -0.157084,-0.16029 -0.278904,-0.347294 -0.363323,-0.55567 -0.08121,-0.201986 -0.12182,-0.415705 -0.12182,-0.633699 0,-0.446673 0.172044,-0.864483 0.485143,-1.17866 0.0043,-0.0032 0.0074,-0.0064 0.01176,-0.0096 l 3.610785,-3.609716 c 0.0032,-0.0032 0.0064,-0.0075 0.0096,-0.01176 0.228679,-0.224405 0.494759,-0.399655 0.790761,-0.518269 0.28852,-0.115408 0.592001,-0.173112 0.904042,-0.173112 0.312019,0 0.616569,0.05984 0.904032,0.17525 0.298139,0.120751 0.565287,0.29707 0.793967,0.52468 0.228679,0.22868 0.404998,0.495828 0.525749,0.793967 0.116476,0.287452 0.17525,0.592002 0.17525,0.904032 0,0.313098 -0.05877,0.618717 -0.176319,0.908306 -0.120762,0.299207 -0.299207,0.568493 -0.528955,0.79931 l -2.495171,2.48769 c -0.09083,0.09083 -0.141054,0.210514 -0.141054,0.338745 0,0.128232 0.05022,0.247914 0.139986,0.337676 l 0.0053,0.0053 c 0.185936,0.185936 0.489417,0.185936 0.675352,0 l 2.493034,-2.486633 c 0.321659,-0.321647 0.5717,-0.696724 0.741606,-1.114546 0.164564,-0.403928 0.246845,-0.830298 0.246845,-1.268422 0,-0.437056 -0.08335,-0.863425 -0.246845,-1.266286 -0.168827,-0.417821 -0.41782,-0.79183 -0.739468,-1.112408 z"
           id="path2"
           style="fill:#eeacbe;fill-opacity:1;stroke-width:0.010686" />
        <path
           d="m 60.397053,13.856754 c -0.321647,-0.321648 -0.695656,-0.571699 -1.114545,-0.741606 -0.40393,-0.163495 -0.830299,-0.247914 -1.268423,-0.247914 -0.437056,0 -0.864494,0.08228 -1.268424,0.244708 -0.41782,0.168839 -0.792897,0.415684 -1.114544,0.735194 l -3.618265,3.610785 c -0.254326,0.252189 -0.450948,0.546053 -0.585591,0.87518 -0.1293,0.317373 -0.195553,0.652912 -0.195553,0.998068 0,0.34302 0.06519,0.67749 0.193416,0.994863 0.132505,0.328058 0.328059,0.621923 0.580247,0.875169 0.252189,0.253258 0.547122,0.44881 0.87518,0.582385 0.317373,0.12931 0.652913,0.194484 0.997,0.194484 0.344087,0 0.679627,-0.06518 0.997,-0.193416 0.329127,-0.133574 0.624049,-0.329127 0.877317,-0.581316 l 2.875601,-2.863836 c 0.184867,-0.183798 0.326991,-0.398586 0.424222,-0.637951 0.09405,-0.230818 0.141055,-0.475526 0.141055,-0.725567 0,-0.515062 -0.200896,-0.995931 -0.565277,-1.357116 -0.363322,-0.36546 -0.846327,-0.567425 -1.360333,-0.569561 -0.515052,-0.0011 -0.999137,0.198758 -1.363528,0.563149 l -1.790966,1.792035 c -0.09083,0.09083 -0.139986,0.210514 -0.139986,0.337687 0,0.127153 0.04915,0.247903 0.139986,0.337676 l 0.0074,0.0075 c 0.185935,0.187004 0.489417,0.187004 0.676421,0.0011 l 1.795241,-1.789898 c 0.375077,-0.371871 0.984177,-0.374009 1.359243,-0.0042 0.180593,0.179524 0.278914,0.419958 0.278914,0.677479 0,0.259668 -0.100448,0.503319 -0.283178,0.684981 l -2.874523,2.863836 c -0.0053,0.0053 -0.0096,0.0096 -0.01282,0.01603 -0.317373,0.308813 -0.736263,0.477651 -1.180799,0.475524 -0.447741,-0.0021 -0.8677,-0.176318 -1.181866,-0.491553 -0.157084,-0.16029 -0.278904,-0.347294 -0.363323,-0.55567 -0.08121,-0.201986 -0.12182,-0.415705 -0.12182,-0.633699 0,-0.446673 0.172044,-0.864483 0.485143,-1.17866 0.0043,-0.0032 0.0074,-0.0064 0.01176,-0.0096 l 3.610785,-3.609716 c 0.0032,-0.0032 0.0064,-0.0075 0.0096,-0.01176 0.228679,-0.224405 0.494759,-0.399655 0.790761,-0.518269 0.28852,-0.115408 0.592001,-0.173112 0.904042,-0.173112 0.312019,0 0.616569,0.05984 0.904032,0.17525 0.298139,0.120751 0.565287,0.29707 0.793967,0.52468 0.228679,0.22868 0.404998,0.495828 0.525749,0.793967 0.116476,0.287452 0.17525,0.592002 0.17525,0.904032 0,0.313098 -0.05877,0.618717 -0.176319,0.908306 -0.120762,0.299207 -0.299207,0.568493 -0.528955,0.79931 l -2.495171,2.48769 c -0.09083,0.09083 -0.141054,0.210514 -0.141054,0.338745 0,0.128232 0.05022,0.247914 0.139986,0.337676 l 0.0053,0.0053 c 0.185936,0.185936 0.489417,0.185936 0.675352,0 l 2.493034,-2.486633 c 0.321659,-0.321647 0.5717,-0.696724 0.741606,-1.114546 0.164564,-0.403928 0.246845,-0.830298 0.246845,-1.268422 0,-0.437056 -0.08335,-0.863425 -0.246845,-1.266286 -0.168827,-0.417821 -0.41782,-0.79183 -0.739468,-1.112408 z"
           id="path2-6"
           style="display:inline;fill:#7fe4cc;fill-opacity:1;stroke-width:0.010686" />
      </g>
    </g>
  </g>
</svg>
