<?xml version="1.0" encoding="UTF-8" standalone="no"?>
<!-- Created with Inkscape (http://www.inkscape.org/) -->

<svg
   width="88.022446mm"
   height="84.719734mm"
   viewBox="0 0 88.022446 84.719734"
   version="1.1"
   id="svg11005"
   inkscape:version="1.1.2 (0a00cf5339, 2022-02-04, custom)"
   sodipodi:docname="house.svg"
   xmlns:inkscape="http://www.inkscape.org/namespaces/inkscape"
   xmlns:sodipodi="http://sodipodi.sourceforge.net/DTD/sodipodi-0.dtd"
   xmlns="http://www.w3.org/2000/svg"
   xmlns:svg="http://www.w3.org/2000/svg">
  <sodipodi:namedview
     id="namedview11007"
     pagecolor="#ffffff"
     bordercolor="#666666"
     borderopacity="1.0"
     inkscape:pageshadow="2"
     inkscape:pageopacity="0.0"
     inkscape:pagecheckerboard="0"
     inkscape:document-units="mm"
     showgrid="false"
     fit-margin-top="0"
     fit-margin-left="0"
     fit-margin-right="0"
     fit-margin-bottom="0"
     inkscape:zoom="0.43402052"
     inkscape:cx="-167.04279"
     inkscape:cy="125.5701"
     inkscape:window-width="1914"
     inkscape:window-height="1017"
     inkscape:window-x="0"
     inkscape:window-y="24"
     inkscape:window-maximized="1"
     inkscape:current-layer="layer1" />
  <defs
     id="defs11002" />
  <g
     inkscape:label="Livello 1"
     inkscape:groupmode="layer"
     id="layer1"
     transform="translate(-2.5078356,-105.46487)">
    <g
       id="g20220"
       transform="matrix(2.1793994,0,0,2.1793994,-13.568874,36.50504)">
      <path
         style="fill:#e4aa99;fill-opacity:1;stroke-width:0.0452716"
         d="m 17.529226,49.460042 c -0.147509,-0.10962 -0.303412,-0.425654 -0.303412,-0.615047 0,-0.1699 0.07237,-0.377936 0.179651,-0.516454 0.04998,-0.06453 1.181797,-0.75542 2.515152,-1.535316 l 2.424281,-1.41799 v -1.083797 c 0,-0.596087 -0.01724,-1.137488 -0.03834,-1.20311 -0.02973,-0.09259 -0.07789,-0.12559 -0.214894,-0.147336 -0.23254,-0.03691 -0.370293,-0.161837 -0.490066,-0.444449 -0.07439,-0.175505 -0.09148,-0.274186 -0.07048,-0.406655 0.03705,-0.233707 0.271107,-0.532079 0.473736,-0.603912 0.214028,-0.07588 2.863888,-0.08042 3.03214,-0.0052 0.143526,0.06417 0.333373,0.271393 0.412206,0.449941 0.180397,0.408585 -0.08685,0.925607 -0.524013,1.013747 l -0.187218,0.03775 -0.01169,0.628619 -0.01169,0.62862 0.127476,-0.078 c 0.473665,-0.289827 4.101674,-2.320309 4.285886,-2.398675 0.158606,-0.06748 0.279166,-0.08772 0.395376,-0.06641 0.203322,0.03728 0.173901,0.01628 4.848144,3.462432 l 3.723724,2.745378 0.08103,0.232068 c 0.0713,0.204211 0.07473,0.256925 0.0286,0.439129 -0.06683,0.263906 -0.23295,0.460249 -0.456465,0.539487 -0.155862,0.05526 -0.197852,0.05111 -0.371119,-0.03667 -0.107455,-0.05445 -1.944852,-1.423025 -4.083103,-3.041303 l -3.887729,-2.942323 -0.357367,0.195057 c -0.196552,0.107282 -2.735867,1.552756 -5.642923,3.212168 -5.778037,3.298226 -5.564284,3.190631 -5.876949,2.958268 z"
         id="path32328" />
      <path
         style="fill:#7fe4cc;fill-opacity:1;stroke-width:0.0452716"
         d="m 32.270054,59.010371 c -0.262562,-0.04663 -0.527328,-0.204127 -0.617795,-0.367501 -0.09676,-0.174735 -0.129442,-0.521741 -0.0694,-0.736989 0.119983,-0.430178 0.496685,-0.717636 0.941545,-0.718478 0.34704,-7.39e-4 0.690892,0.203869 0.973496,0.579052 l 0.208878,0.277297 v -0.347198 c 0,-0.587691 0.134317,-0.89376 0.474473,-1.081174 0.396698,-0.218565 0.76305,-0.133458 1.092296,0.253755 l 0.214167,0.251869 0.04519,-0.266239 c 0.0938,-0.55262 0.461883,-1.164712 0.836347,-1.390759 0.352202,-0.212608 0.816366,-0.175708 1.174265,0.09336 0.376004,0.282673 0.566758,0.853177 0.438909,1.312689 -0.03685,0.132485 -0.06056,0.248539 -0.05265,0.257891 0.0078,0.0093 0.07032,-0.01725 0.138723,-0.05909 0.340446,-0.208314 0.720206,-0.12543 0.979151,0.213724 0.339096,0.44412 0.18682,1.278696 -0.294374,1.613386 l -0.197928,0.137668 -3.038156,0.0069 c -1.670986,0.0039 -3.132196,-0.0098 -3.247128,-0.03017 z"
         id="path32326" />
      <path
         style="fill:#dcbc88;fill-opacity:1;stroke-width:0.0452716"
         d="m 22.671927,58.804321 c 0.139098,-0.332574 0.168704,-0.796244 0.07032,-1.10109 -0.0884,-0.273914 -0.408823,-0.622597 -0.653219,-0.710854 -0.09962,-0.03598 -0.300884,-0.06786 -0.447265,-0.07087 l -0.266146,-0.0054 -0.01063,-0.285016 c -0.01525,-0.407897 -0.18363,-0.795874 -0.418482,-0.964367 l -0.180438,-0.129456 -0.0015,-3.354229 -0.0015,-3.354229 4.270414,-2.432105 c 2.34873,-1.337658 4.29625,-2.439219 4.327829,-2.447913 0.03158,-0.0086 1.509088,1.085463 3.283359,2.43146 l 3.225945,2.447264 v 3.234681 3.234682 l -0.20403,0.250465 c -0.112211,0.13776 -0.2467,0.360527 -0.298854,0.495049 l -0.09482,0.244577 -0.231783,-0.127238 c -0.328316,-0.180231 -0.648845,-0.174365 -0.97447,0.01784 -0.257984,0.152272 -0.593405,0.545106 -0.635705,0.744525 -0.01367,0.06445 -0.02918,0.117166 -0.03449,0.117166 -0.0053,0 -0.129695,-0.07202 -0.276414,-0.160046 -0.232807,-0.139678 -0.306494,-0.159681 -0.578901,-0.157158 -0.426474,0.004 -0.740919,0.153328 -1.021434,0.485244 -0.420423,0.497467 -0.478358,1.253688 -0.129602,1.691633 l 0.127981,0.160708 -1.43414,-0.01302 -1.434138,-0.01302 -0.02135,-3.102459 c -0.02075,-3.016194 -0.02382,-3.110137 -0.110151,-3.378537 -0.326511,-1.015197 -1.054837,-1.621822 -1.9434,-1.618667 -0.60174,0.0021 -0.993851,0.177069 -1.403977,0.626356 -0.262557,0.287625 -0.403375,0.532841 -0.551791,0.960855 -0.08761,0.252657 -0.09002,0.326455 -0.110378,3.385369 l -0.02079,3.127083 -0.961641,0.01315 -0.96164,0.01315 z"
         id="path32322" />
      <path
         style="fill:#7fe4cc;fill-opacity:1;stroke-width:0.0452716"
         d="m 15.735212,59.010087 c -0.156708,-0.02142 -0.307969,-0.07548 -0.374567,-0.133842 -0.358039,-0.31378 -0.441003,-0.956613 -0.175086,-1.356619 0.174465,-0.262446 0.59397,-0.400496 0.857188,-0.282081 0.06188,0.02785 0.118468,0.04359 0.125722,0.03501 0.0072,-0.0086 -0.01588,-0.114469 -0.05142,-0.235291 -0.04549,-0.154665 -0.05973,-0.343568 -0.04816,-0.638268 0.01363,-0.346936 0.03723,-0.46373 0.137882,-0.682324 0.154182,-0.334839 0.354346,-0.530978 0.644474,-0.631516 0.473354,-0.164032 1.011878,-0.07379 1.364786,0.228707 0.175267,0.150232 0.383195,0.57476 0.383195,0.782381 0,0.115546 0.008,0.111773 0.173299,-0.08192 0.444327,-0.520547 1.168245,-0.633909 1.613104,-0.252602 0.358803,0.307545 0.585856,0.892754 0.585856,1.509992 0,0.30993 0.0029,0.319495 0.09364,0.286114 0.320779,-0.11831 0.433429,-0.133195 0.601574,-0.07949 0.578665,0.184818 0.803685,1.104188 0.357781,1.46179 -0.1116,0.08951 -0.242672,0.09376 -3.071498,0.0997 -1.625205,0.0033 -3.073204,-0.01 -3.217775,-0.02973 z"
         id="path17183" />
      <path
         style="fill:#7fe4cc;fill-opacity:1;stroke-width:0.0452716"
         d="m 33.324614,51.388276 c -0.01315,-1.1134 -0.01392,-1.122074 -0.13,-1.401742 -0.230335,-0.555011 -0.700547,-0.884735 -1.256791,-0.881298 -0.649973,0.004 -1.111896,0.394508 -1.285656,1.086849 -0.05196,0.207026 -0.06679,0.493675 -0.06679,1.291309 v 1.025216 h 1.376229 1.376226 z"
         id="path32324" />
    </g>
  </g>
</svg>
