<?xml version="1.0" encoding="UTF-8" standalone="no"?>
<!-- Created with Inkscape (http://www.inkscape.org/) -->

<svg
   width="88.022446mm"
   height="84.719734mm"
   viewBox="0 0 88.022446 84.719734"
   version="1.1"
   id="svg11005"
   inkscape:version="1.1.2 (0a00cf5339, 2022-02-04, custom)"
   sodipodi:docname="tax.svg"
   xmlns:inkscape="http://www.inkscape.org/namespaces/inkscape"
   xmlns:sodipodi="http://sodipodi.sourceforge.net/DTD/sodipodi-0.dtd"
   xmlns="http://www.w3.org/2000/svg"
   xmlns:svg="http://www.w3.org/2000/svg">
  <sodipodi:namedview
     id="namedview11007"
     pagecolor="#ffffff"
     bordercolor="#666666"
     borderopacity="1.0"
     inkscape:pageshadow="2"
     inkscape:pageopacity="0.0"
     inkscape:pagecheckerboard="0"
     inkscape:document-units="mm"
     showgrid="false"
     fit-margin-top="0"
     fit-margin-left="0"
     fit-margin-right="0"
     fit-margin-bottom="0"
     inkscape:zoom="0.6137977"
     inkscape:cx="210.16697"
     inkscape:cy="162.10553"
     inkscape:window-width="1914"
     inkscape:window-height="1017"
     inkscape:window-x="0"
     inkscape:window-y="24"
     inkscape:window-maximized="1"
     inkscape:current-layer="layer1" />
  <defs
     id="defs11002" />
  <g
     inkscape:label="Livello 1"
     inkscape:groupmode="layer"
     id="layer1"
     transform="translate(-2.5078356,-105.46487)">
    <g
       id="g146324"
       transform="matrix(3.4622864,0,0,3.4622864,-404.41152,-174.48409)">
      <path
         style="fill:#eeacbe;fill-opacity:1;stroke-width:0.0284045"
         d="m 124.5949,100.58518 -0.0966,-0.0966 v -7.060019 c 0,-5.413181 0.008,-7.077393 0.0339,-7.134498 0.0753,-0.165246 -0.26433,-0.155431 5.37855,-0.155431 h 5.18807 l 0.0966,0.09658 0.0966,0.09657 v 7.0784 7.078398 l -0.0966,0.0966 -0.0966,0.0966 h -5.2037 -5.20371 z"
         id="path87708" />
      <path
         style="fill:#7fe4cc;fill-opacity:1;stroke-width:0.0284045"
         d="m 133.84341,99.218928 0.46803,-0.468674 h -0.47546 -0.47545 v 0.468674 c 0,0.257771 0.003,0.468675 0.007,0.468675 0.004,0 0.21803,-0.210904 0.47545,-0.468675 z"
         id="path88529" />
      <path
         style="fill:#ffffff;stroke-width:0.0284045"
         d="m 132.79244,99.262873 c 0,-0.599133 0.0101,-0.87283 0.0339,-0.925277 0.0674,-0.147933 0.11778,-0.155432 1.04403,-0.155432 h 0.85355 V 94.54639 90.910614 h -4.82877 -4.82876 v 4.601528 4.601528 h 3.86301 3.86301 z"
         id="path88491" />
      <path
         style="fill:#eeacbe;fill-opacity:1;stroke-width:0.0284045"
         d="m 127.35501,99.330518 c -0.0245,-0.02454 -0.0446,-0.06781 -0.0446,-0.09614 0,-0.04097 -0.0311,-0.0554 -0.15231,-0.07054 -0.19743,-0.02466 -0.46864,-0.153899 -0.56613,-0.269754 -0.0928,-0.11027 -0.0996,-0.234113 -0.02,-0.364672 0.10423,-0.170961 0.21856,-0.171409 0.45981,-0.0017 0.042,0.02956 0.12194,0.07276 0.17753,0.09598 l 0.10106,0.04222 -6.2e-4,-0.305729 -6.2e-4,-0.305728 -0.21406,-0.09766 c -0.11873,-0.05417 -0.26389,-0.147479 -0.32593,-0.209525 -0.18994,-0.189944 -0.24079,-0.499627 -0.12692,-0.773043 0.0725,-0.174157 0.34234,-0.373349 0.5733,-0.423255 0.0682,-0.01474 0.0928,-0.03798 0.10507,-0.09922 0.0285,-0.142309 0.27453,-0.135671 0.27453,0.0074 0,0.06221 0.0141,0.06904 0.17125,0.0833 0.21952,0.01991 0.43038,0.122134 0.46596,0.225904 0.0378,0.110255 -0.0113,0.275222 -0.10196,0.342487 l -0.0755,0.05599 -0.21594,-0.07457 c -0.11877,-0.04102 -0.22222,-0.07457 -0.22989,-0.07457 -0.008,0 -0.0139,0.120538 -0.0139,0.26786 v 0.267863 l 0.2083,0.100188 c 0.39232,0.188699 0.57343,0.492301 0.50693,0.849849 -0.0586,0.315318 -0.23366,0.511064 -0.55332,0.618862 -0.11497,0.03877 -0.14972,0.06445 -0.15681,0.115873 -0.0173,0.125165 -0.15842,0.178531 -0.2445,0.09244 z"
         id="path88493" />
      <path
         style="fill:#ffffff;stroke-width:0.0284045"
         d="m 127.36718,97.259018 c 0,-0.195675 -0.005,-0.213034 -0.0581,-0.213034 -0.0737,0 -0.19754,0.122044 -0.19754,0.1946 0,0.05428 0.1747,0.231468 0.22823,0.231468 0.0152,0 0.0274,-0.09507 0.0274,-0.213034 z"
         id="path88497" />
      <path
         style="fill:#7fe4cc;fill-opacity:1;stroke-width:0.0284045"
         d="M 134.72395,88.524637 V 86.70675 h -4.82877 -4.82876 v 1.817887 1.817888 h 4.82876 4.82877 z"
         id="path88531" />
      <path
         style="fill:#eeacbe;fill-opacity:1;stroke-width:0.0284045"
         d="m 128.97204,89.654866 c -0.11691,-0.04098 -0.18463,-0.105244 -0.18463,-0.175207 0,-0.06317 0.55619,-1.902213 0.60015,-1.984393 0.0383,-0.07159 0.17667,-0.135215 0.29409,-0.135215 0.10823,0 0.2799,0.06015 0.30981,0.108548 0.0267,0.04322 0.61383,1.967853 0.61383,2.012195 0,0.101775 -0.24908,0.225411 -0.38527,0.191231 -0.0731,-0.01835 -0.10618,-0.08284 -0.15551,-0.303298 l -0.0363,-0.162384 h -0.33327 -0.33328 l -0.0489,0.199474 c -0.0653,0.266631 -0.13833,0.319983 -0.34069,0.249049 z"
         id="path88535" />
      <path
         style="fill:#7fe4cc;fill-opacity:1;stroke-width:0.0284045"
         d="m 129.89518,88.779809 c 0,-0.03041 -0.16203,-0.636522 -0.18971,-0.709646 -0.0184,-0.0487 -0.017,-0.05281 -0.14496,0.418966 l -0.0867,0.319551 h 0.21067 c 0.12378,0 0.21067,-0.01191 0.21067,-0.02887 z"
         id="path88537" />
      <path
         style="fill:#eeacbe;fill-opacity:1;stroke-width:0.0284045"
         d="m 131.41751,89.645833 c -0.0999,-0.0521 -0.15679,-0.122533 -0.15801,-0.195602 -5.7e-4,-0.0299 0.12655,-0.250232 0.28234,-0.489632 l 0.28324,-0.435274 -0.26904,-0.428038 c -0.29511,-0.46951 -0.31968,-0.551258 -0.19514,-0.649215 0.0896,-0.0705 0.25962,-0.106452 0.3213,-0.06794 0.0248,0.01548 0.1429,0.19706 0.26245,0.403515 l 0.21739,0.375372 0.21924,-0.385607 c 0.22929,-0.403297 0.26914,-0.440906 0.42558,-0.401642 0.0392,0.0098 0.11141,0.05378 0.16052,0.09766 0.0697,0.06224 0.0854,0.09489 0.0717,0.148528 -0.01,0.03781 -0.13303,0.253713 -0.27414,0.479782 -0.14111,0.226067 -0.25657,0.419015 -0.25657,0.428772 0,0.0098 0.11898,0.201861 0.2644,0.426899 0.14542,0.225038 0.27156,0.428334 0.28032,0.451767 0.0656,0.17574 -0.31288,0.37906 -0.43627,0.234337 -0.0233,-0.02734 -0.12983,-0.200551 -0.23671,-0.384917 -0.10688,-0.184365 -0.20232,-0.340147 -0.21208,-0.346183 -0.01,-0.006 -0.1228,0.167176 -0.25117,0.384917 -0.22358,0.379184 -0.2373,0.395883 -0.32514,0.395716 -0.0504,-8.5e-5 -0.12884,-0.01954 -0.17423,-0.04321 z"
         id="path88539" />
      <path
         style="fill:#eeacbe;fill-opacity:1;stroke-width:0.0284045"
         d="m 127.40979,89.66906 c -0.0313,-0.0078 -0.0792,-0.03394 -0.10652,-0.05818 -0.0453,-0.04018 -0.0497,-0.121525 -0.0497,-0.920214 v -0.876137 l -0.23434,-4.26e-4 c -0.12889,-2.39e-4 -0.25055,-0.01072 -0.27036,-0.0233 -0.0675,-0.04283 -0.0932,-0.201859 -0.0496,-0.306271 l 0.0401,-0.09606 h 0.75069 c 0.84611,0 0.82866,-0.0045 0.82866,0.213034 0,0.188673 -0.0377,0.213033 -0.33013,0.213033 h -0.25216 v 0.893742 c 0,0.822326 -0.004,0.895824 -0.0497,0.919786 -0.0705,0.03692 -0.21012,0.0576 -0.27694,0.04101 z"
         id="path88533" />
      <path
         style="fill:#ffffff;stroke-width:0.0284045"
         d="m 134.72395,99.644996 c 0,-0.257771 -0.003,-0.468675 -0.007,-0.468675 -0.004,0 -0.21804,0.210904 -0.47545,0.468675 l -0.46804,0.468674 h 0.47546 0.47546 z"
         id="path88527" />
      <path
         style="fill:#eeacbe;fill-opacity:1;stroke-width:0.0284045"
         d="m 128.05202,92.007155 c -0.19037,-0.10551 -0.18412,-0.405942 0.0103,-0.494516 0.10675,-0.04864 3.55901,-0.04864 3.66576,0 0.0814,0.03709 0.15544,0.156206 0.15544,0.25011 0,0.0939 -0.074,0.213019 -0.15544,0.250111 -0.11369,0.0518 -3.582,0.04642 -3.67604,-0.0057 z"
         id="path88525" />
      <path
         style="fill:#eeacbe;fill-opacity:1;stroke-width:0.0284045"
         d="m 133.73291,93.029717 c -0.24625,-0.136486 -0.14322,-0.528451 0.1389,-0.528451 0.14392,0 0.28404,0.138768 0.28404,0.281298 0,0.213244 -0.23565,0.350956 -0.42294,0.247153 z"
         id="path88523" />
      <path
         style="fill:#eeacbe;fill-opacity:1;stroke-width:0.0284045"
         d="m 130.32438,93.029717 c -0.19037,-0.10551 -0.18413,-0.405942 0.0103,-0.494517 0.10587,-0.04824 2.42373,-0.04824 2.52959,0 0.0814,0.03709 0.15543,0.156207 0.15543,0.250111 0,0.0939 -0.074,0.213019 -0.15543,0.25011 -0.11267,0.05134 -2.44641,0.0461 -2.53987,-0.0057 z"
         id="path88521" />
      <path
         style="fill:#eeacbe;fill-opacity:1;stroke-width:0.0284045"
         d="m 129.1882,93.029717 c -0.24625,-0.136486 -0.14323,-0.528451 0.13889,-0.528451 0.14392,0 0.28404,0.138768 0.28404,0.281298 0,0.213244 -0.23565,0.350956 -0.42293,0.247153 z"
         id="path88519" />
      <path
         style="fill:#eeacbe;fill-opacity:1;stroke-width:0.0284045"
         d="m 125.77965,93.029717 c -0.19036,-0.10551 -0.18411,-0.405942 0.0103,-0.494517 0.10587,-0.04824 2.42373,-0.04824 2.52958,0 0.0814,0.03709 0.15544,0.156207 0.15544,0.250111 0,0.0939 -0.074,0.213019 -0.15544,0.25011 -0.11267,0.05134 -2.4464,0.0461 -2.53986,-0.0057 z"
         id="path88517" />
      <path
         style="fill:#eeacbe;fill-opacity:1;stroke-width:0.0284045"
         d="m 132.02865,94.165897 c -0.13441,-0.07449 -0.17922,-0.238159 -0.10468,-0.382309 0.0723,-0.139828 0.11977,-0.146142 1.09845,-0.146142 0.98626,0 1.0316,0.0064 1.0995,0.155431 0.0664,0.145744 0.0185,0.304581 -0.1122,0.372183 -0.1103,0.05703 -1.87834,0.05778 -1.98107,8.63e-4 z"
         id="path88515" />
      <path
         style="fill:#eeacbe;fill-opacity:1;stroke-width:0.0284045"
         d="m 129.75629,94.165897 c -0.13441,-0.07449 -0.17922,-0.238159 -0.10468,-0.382309 0.0692,-0.133765 0.13815,-0.146142 0.81441,-0.146142 0.67958,0 0.75082,0.01358 0.81545,0.155431 0.0664,0.145744 0.0185,0.304581 -0.11221,0.372183 -0.10889,0.05631 -1.31161,0.05702 -1.41297,8.63e-4 z"
         id="path88513" />
      <path
         style="fill:#eeacbe;fill-opacity:1;stroke-width:0.0284045"
         d="m 126.91583,94.165897 c -0.1344,-0.07449 -0.17921,-0.238159 -0.10467,-0.382309 0.0723,-0.139828 0.11977,-0.146142 1.09845,-0.146142 0.98626,0 1.0316,0.0064 1.0995,0.155431 0.0664,0.145744 0.0185,0.304581 -0.11221,0.372183 -0.11029,0.05703 -1.87833,0.05778 -1.98107,8.63e-4 z"
         id="path88511" />
      <path
         style="fill:#eeacbe;fill-opacity:1;stroke-width:0.0284045"
         d="m 132.31269,95.302077 c -0.13441,-0.0745 -0.17921,-0.23816 -0.10467,-0.382311 0.071,-0.137259 0.12911,-0.146141 0.95643,-0.146141 0.83271,0 0.89096,0.0095 0.95747,0.155433 0.0664,0.145743 0.0185,0.304581 -0.1122,0.372181 -0.10973,0.05674 -1.59485,0.05747 -1.69703,8.63e-4 z"
         id="path88509" />
      <path
         style="fill:#eeacbe;fill-opacity:1;stroke-width:0.0284045"
         d="m 129.47224,95.302077 c -0.13441,-0.0745 -0.17922,-0.23816 -0.10468,-0.382311 0.0723,-0.139826 0.11977,-0.146141 1.09846,-0.146141 0.98626,0 1.03159,0.0064 1.09949,0.155433 0.0664,0.145743 0.0185,0.304581 -0.1122,0.372181 -0.1103,0.05703 -1.87833,0.05778 -1.98107,8.63e-4 z"
         id="path88507" />
      <path
         style="fill:#eeacbe;fill-opacity:1;stroke-width:0.0284045"
         d="m 125.77965,95.302077 c -0.19036,-0.105512 -0.18411,-0.405943 0.0103,-0.494517 0.0544,-0.02477 0.43435,-0.03394 1.40681,-0.03394 1.43089,0 1.447,0.0014 1.52178,0.146141 0.076,0.147047 0.0233,0.325016 -0.11496,0.388014 -0.11301,0.05149 -2.73026,0.04621 -2.82391,-0.0057 z"
         id="path88505" />
      <path
         style="fill:#eeacbe;fill-opacity:1;stroke-width:0.0284045"
         d="m 130.32438,96.438256 c -0.19037,-0.105511 -0.18413,-0.405942 0.0103,-0.494516 0.0552,-0.02514 0.53008,-0.03393 1.83289,-0.03393 1.3028,0 1.7777,0.0088 1.83288,0.03393 0.0814,0.03709 0.15543,0.156205 0.15543,0.25011 0,0.09391 -0.074,0.21302 -0.15543,0.25011 -0.11369,0.05181 -3.582,0.04642 -3.67605,-0.0057 z"
         id="path88503" />
      <path
         style="fill:#eeacbe;fill-opacity:1;stroke-width:0.0284045"
         d="m 130.32438,97.574436 c -0.19037,-0.105511 -0.18413,-0.405943 0.0103,-0.494516 0.0552,-0.02514 0.53008,-0.03394 1.83289,-0.03394 1.3028,0 1.7777,0.0088 1.83288,0.03394 0.0814,0.03709 0.15543,0.156204 0.15543,0.25011 0,0.09391 -0.074,0.213019 -0.15543,0.25011 -0.11369,0.05181 -3.582,0.04642 -3.67605,-0.0057 z"
         id="path88501" />
      <path
         style="fill:#eeacbe;fill-opacity:1;stroke-width:0.0284045"
         d="m 129.47224,98.710616 c -0.19036,-0.105512 -0.18412,-0.405943 0.0103,-0.494517 0.0534,-0.02437 0.37113,-0.03394 1.12551,-0.03394 1.14006,0 1.17256,0.0041 1.24152,0.155432 0.0664,0.145743 0.0185,0.304582 -0.1122,0.372182 -0.11071,0.05725 -2.16197,0.05801 -2.26512,8.63e-4 z"
         id="path88499" />
      <path
         style="fill:#ffffff;stroke-width:0.0284045"
         d="m 127.69847,98.594691 c 0.12827,-0.08984 0.1064,-0.274716 -0.0453,-0.382716 l -0.0872,-0.06208 v 0.243373 c 0,0.259398 0.0157,0.28323 0.13246,0.201427 z"
         id="path88495" />
    </g>
  </g>
</svg>
